# File created by Blade
# Date/Time:  Tue Jan 27 20:02:37 2015
# Frame Rate: 120.000 fps
#------------------------------------------------------
:FULLY-SPECIFIED
:DEGREES
2902
root 7.003227 33.701261 4.413170 17.785216 -21.275639 -26.773202
Spine 2.799272 23.995867 5.394414
Head -6.384239 -4.547697 12.330578
LeftShoulder -14.344516 0.575756 31.255103
LeftArm -4.643418 -14.466237 -80.521075
LeftForeArm -39.715083 0.000000 130.777915
LeftHand 8.402812 -0.000000 -39.934139
LeftHandThumb1 -26.253704 0.000000 33.147579
RightShoulder -11.498852 -5.304069 -19.897613
RightArm 32.605971 -56.672760 77.338230
RightForeArm -13.928056 -0.000000 25.405603
RightHand 15.891428 -0.000000 10.633368
RightHandThumb1 -24.326973 -0.000000 -32.862282
LeftUpLeg 1.869913 19.125411 13.626867
LeftLeg -7.796896 -0.000000 0.000000
LeftFoot -18.366211 23.290039 -15.950998
LeftToeBase 18.786041 -0.000000 -0.000000
RightUpLeg 16.356077 -57.994768 -41.694033
RightLeg 115.977727 -0.000000 -0.000000
RightFoot 34.274884 -22.580111 23.460688
RightToeBase 15.282928 -0.000000 -0.000000
2903
root 7.022544 33.708880 4.400012 17.887184 -21.411145 -26.894261
Spine 2.898173 23.947816 5.537277
Head -6.484215 -4.399054 12.249815
LeftShoulder -14.398585 0.557207 31.187763
LeftArm -4.691299 -14.400141 -80.470236
LeftForeArm -39.817370 -0.000000 130.743102
LeftHand 8.473993 0.000000 -39.931902
LeftHandThumb1 -26.253704 0.000000 33.147579
RightShoulder -11.471379 -5.164080 -19.962134
RightArm 32.474415 -56.574031 77.555817
RightForeArm -14.082387 -0.000000 25.351659
RightHand 15.958139 -0.000000 10.561130
RightHandThumb1 -24.326973 -0.000000 -32.862282
LeftUpLeg 1.855500 19.176173 13.694147
LeftLeg -7.776624 -0.000000 0.000000
LeftFoot -18.413991 23.202172 -16.070389
LeftToeBase 18.883693 -0.000000 -0.000000
RightUpLeg 15.570354 -57.740739 -41.161463
RightLeg 115.456742 -0.000000 -0.000000
RightFoot 34.259062 -22.660700 23.281293
RightToeBase 14.569704 -0.000000 -0.000000
2904
root 7.045291 33.714076 4.388864 17.951382 -21.548668 -26.992793
Spine 3.029115 23.883958 5.667499
Head -6.574565 -4.280498 12.200789
LeftShoulder -14.415185 0.568671 31.126826
LeftArm -4.710518 -14.387485 -80.458017
LeftForeArm -39.960516 -0.000000 130.730766
LeftHand 8.380642 -0.000000 -40.055523
LeftHandThumb1 -26.253704 0.000000 33.147579
RightShoulder -11.451085 -5.091546 -19.997665
RightArm 32.606660 -56.601906 77.423410
RightForeArm -13.973232 -0.000000 25.421060
RightHand 15.921450 -0.000000 10.430954
RightHandThumb1 -24.326973 -0.000000 -32.862282
LeftUpLeg 1.861835 19.238305 13.738658
LeftLeg -7.755994 -0.000000 0.000000
LeftFoot -18.459855 23.154132 -16.168258
LeftToeBase 18.916906 -0.000000 -0.000000
RightUpLeg 14.807383 -57.441779 -40.714079
RightLeg 114.868251 -0.000000 -0.000000
RightFoot 34.007464 -22.969126 23.516468
RightToeBase 14.706599 -0.000000 -0.000000
2905
root 7.078541 33.718329 4.375425 18.049513 -21.696479 -27.027072
Spine 3.102786 23.796266 5.725041
Head -6.666606 -4.159591 12.125231
LeftShoulder -14.445087 0.534046 31.028245
LeftArm -4.750677 -14.316469 -80.397245
LeftForeArm -40.058049 -0.000000 130.716682
LeftHand 8.481129 -0.000000 -40.079590
LeftHandThumb1 -26.253704 0.000000 33.147579
RightShoulder -11.406934 -5.026507 -20.038982
RightArm 32.580818 -56.465373 77.525120
RightForeArm -13.984660 -0.000000 25.415552
RightHand 16.021307 0.000000 10.398089
RightHandThumb1 -24.326973 -0.000000 -32.862282
LeftUpLeg 1.797090 19.206701 13.705901
LeftLeg -7.713283 -0.000000 0.000000
LeftFoot -18.535635 23.059161 -16.411340
LeftToeBase 19.037380 -0.000000 -0.000000
RightUpLeg 13.881737 -57.187564 -40.252702
RightLeg 114.264770 -0.000000 -0.000000
RightFoot 33.739295 -23.210450 23.752752
RightToeBase 14.794461 -0.000000 -0.000000
2906
root 7.107408 33.721191 4.361281 18.139586 -21.822706 -27.067214
Spine 3.174448 23.719646 5.766442
Head -6.768787 -4.082904 12.127465
LeftShoulder -14.471691 0.497061 30.995926
LeftArm -4.750819 -14.216491 -80.378052
LeftForeArm -40.267880 -0.000000 130.655457
LeftHand 8.396352 0.000000 -40.247489
LeftHandThumb1 -26.253704 0.000000 33.147579
RightShoulder -11.400104 -5.001468 -20.050250
RightArm 32.711644 -56.415904 77.437192
RightForeArm -13.878944 -0.000000 25.448029
RightHand 16.061834 0.000000 10.229916
RightHandThumb1 -24.326973 -0.000000 -32.862282
LeftUpLeg 1.725431 19.223434 13.676560
LeftLeg -7.656895 -0.000000 0.000000
LeftFoot -18.569932 22.986366 -16.526828
LeftToeBase 19.182817 -0.000000 -0.000000
RightUpLeg 13.059327 -56.960256 -39.916592
RightLeg 113.591558 -0.000000 -0.000000
RightFoot 33.223638 -23.653281 24.292204
RightToeBase 15.377843 -0.000000 -0.000000
2907
root 7.131490 33.727411 4.347619 18.246421 -21.908761 -27.189180
Spine 3.253435 23.656881 5.905509
Head -6.875314 -4.029309 12.135337
LeftShoulder -14.458962 0.467023 30.956871
LeftArm -4.731784 -14.128160 -80.400203
LeftForeArm -40.401640 -0.000000 130.600097
LeftHand 8.413295 -0.000000 -40.457434
LeftHandThumb1 -26.253704 0.000000 33.147579
RightShoulder -11.420280 -4.945326 -20.050070
RightArm 32.860379 -56.485888 77.209374
RightForeArm -13.644232 -0.000000 25.596526
RightHand 15.971758 -0.000000 10.106774
RightHandThumb1 -24.326973 -0.000000 -32.862282
LeftUpLeg 1.641523 19.265447 13.729993
LeftLeg -7.567677 -0.000000 0.000000
LeftFoot -18.658300 23.035118 -16.508040
LeftToeBase 19.432646 -0.000000 -0.000000
RightUpLeg 12.330725 -56.793068 -39.591064
RightLeg 112.800624 -0.000000 -0.000000
RightFoot 33.249593 -23.780469 23.913744
RightToeBase 14.350373 -0.000000 -0.000000
2908
root 7.162611 33.726604 4.340106 18.329341 -21.900107 -27.206404
Spine 3.265336 23.419029 5.985143
Head -6.890594 -3.929498 12.096345
LeftShoulder -14.497231 0.395315 30.962601
LeftArm -4.828418 -13.970836 -80.429759
LeftForeArm -40.534260 0.000000 130.510668
LeftHand 8.411994 0.000000 -40.429938
LeftHandThumb1 -26.253704 0.000000 33.147579
RightShoulder -11.352958 -4.957264 -20.100280
RightArm 32.944195 -56.425455 77.143443
RightForeArm -13.612455 0.000000 25.688846
RightHand 15.935719 -0.000000 10.089618
RightHandThumb1 -24.326973 -0.000000 -32.862282
LeftUpLeg 1.501372 19.222338 13.675716
LeftLeg -7.508736 -0.000000 0.000000
LeftFoot -18.725987 23.021230 -16.543488
LeftToeBase 19.408290 -0.000000 -0.000000
RightUpLeg 11.788648 -56.693432 -39.553299
RightLeg 111.952719 -0.000000 -0.000000
RightFoot 32.886831 -24.077492 24.162597
RightToeBase 14.635104 -0.000000 -0.000000
2909
root 7.192101 33.728724 4.329048 18.397966 -21.958048 -27.251684
Spine 3.328901 23.183547 6.050369
Head -6.931688 -3.790193 12.108978
LeftShoulder -14.562623 0.430903 30.961374
LeftArm -4.832972 -13.890147 -80.494494
LeftForeArm -40.582552 -0.000000 130.456585
LeftHand 8.422267 -0.000000 -40.522322
LeftHandThumb1 -26.253704 0.000000 33.147579
RightShoulder -11.216406 -4.880435 -20.131918
RightArm 32.956319 -56.352604 77.139270
RightForeArm -13.568846 0.000000 25.755318
RightHand 15.947146 -0.000000 10.107365
RightHandThumb1 -24.326973 -0.000000 -32.862282
LeftUpLeg 1.412419 19.259910 13.646322
LeftLeg -7.455894 -0.000000 0.000000
LeftFoot -18.771404 23.009674 -16.591257
LeftToeBase 19.552927 -0.000000 -0.000000
RightUpLeg 11.168000 -56.572306 -39.458896
RightLeg 111.049251 -0.000000 -0.000000
RightFoot 32.769468 -24.125967 23.971545
RightToeBase 14.942250 -0.000000 -0.000000
